# xmcd CD database file
#
# Track frame offsets:
#	183
#	28188
#	53760
#	79013
#	111543
#	130855
#	153770
#	177558
#	197355
#
# Disc length: 2959 seconds
#
# Revision: 0
# Processed by: cddbd v1.5.1PL0 Copyright (c) Steve Scherf et al.
# Submitted via: CDex 1.51
#
DISCID=710b8d09
DTITLE=Emily Remler - Just Friends - A Gathering in Tribute to Emily Remler vol. 2
DYEAR=1991
DGENRE=Jazz
TTITLE0=Conversation Piece
TTITLE1=Too Soon
TTITLE2=I Hear a Rhapsody
TTITLE3=Diaries
TTITLE4=King Cross
TTITLE5=Time after Time
TTITLE6=Em in Mind
TTITLE7=Blues for Herb
TTITLE8=Happy Birthday
EXTD=YEAR: 1991
EXTT0=
EXTT1=
EXTT2=
EXTT3=
EXTT4=
EXTT5=
EXTT6=
EXTT7=
EXTT8=
PLAYORDER=
